# xmcd
#
# Track frame offsets: 
#        150
#        12396
#        28512
#        39589
#        52097
#        70068
#        88049
#        104002
#        121724
#        141606
#        158178
#        170983
#        189215
#        206653
#        223881
#        239380
#
# Disc length: 3572 seconds
#
# Revision: 12
# Processed by: cddbd v1.5.2PL0 Copyright (c) Steve Scherf et al.
# Submitted via: ExactAudioCopy v0.99pb3
#
DISCID=f00df210
DTITLE=Aretha Franklin - Love Songs
DYEAR=1997
DGENRE=Soul
TTITLE0=Baby I Love You
TTITLE1=I Say a Little Prayer
TTITLE2=You Send Me
TTITLE3=(You Make Me Feel Like) A Natural Woman
TTITLE4=Day Dreaming
TTITLE5=This Girl's In Love With You
TTITLE6=You and Me
TTITLE7=Call Me
TTITLE8=Brand New Me
TTITLE9=Oh Me Oh My (I'm A Fool For You Baby)
TTITLE10=I'm In Love
TTITLE11=Look Into Your Heart
TTITLE12=If You Don't Think
TTITLE13=Ain't Nothing Like the Real Thing
TTITLE14=Crazy He Calls Me
TTITLE15=Something He Can Feel
EXTD=track 16 typo
EXTT0=
EXTT1=
EXTT2=
EXTT3=
EXTT4=
EXTT5=
EXTT6=
EXTT7=
EXTT8=
EXTT9=
EXTT10=
EXTT11=
EXTT12=
EXTT13=
EXTT14=
EXTT15=
PLAYORDER=
